<?xml version="1.0" encoding="utf-8" standalone="no"?>
<!DOCTYPE svg PUBLIC "-//W3C//DTD SVG 1.1//EN"
  "http://www.w3.org/Graphics/SVG/1.1/DTD/svg11.dtd">
<svg xmlns:xlink="http://www.w3.org/1999/xlink" width="720pt" height="432pt" viewBox="0 0 720 432" xmlns="http://www.w3.org/2000/svg" version="1.1">
 <metadata>
  <rdf:RDF xmlns:dc="http://purl.org/dc/elements/1.1/" xmlns:cc="http://creativecommons.org/ns#" xmlns:rdf="http://www.w3.org/1999/02/22-rdf-syntax-ns#">
   <cc:Work>
    <dc:type rdf:resource="http://purl.org/dc/dcmitype/StillImage"/>
    <dc:date>2026-02-19T11:53:18.926860</dc:date>
    <dc:format>image/svg+xml</dc:format>
    <dc:creator>
     <cc:Agent>
      <dc:title>Matplotlib v3.10.7, https://matplotlib.org/</dc:title>
     </cc:Agent>
    </dc:creator>
   </cc:Work>
  </rdf:RDF>
 </metadata>
 <defs>
  <style type="text/css">*{stroke-linejoin: round; stroke-linecap: butt}</style>
 </defs>
 <g id="figure_1">
  <g id="patch_1">
   <path d="M 0 432 
L 720 432 
L 720 0 
L 0 0 
z
" style="fill: #ffffff"/>
  </g>
  <g id="axes_1">
   <g id="patch_2">
    <path d="M 90 384.48 
L 648 384.48 
L 648 51.84 
L 90 51.84 
z
" style="fill: #ffffff"/>
   </g>
   <g id="matplotlib.axis_1">
    <g id="xtick_1">
     <g id="line2d_1">
      <path d="M 115.363636 384.48 
L 115.363636 51.84 
" clip-path="url(#p4f5ad34fcf)" style="fill: none; stroke: #b0b0b0; stroke-width: 0.8; stroke-linecap: square"/>
     </g>
     <g id="line2d_2">
      <defs>
       <path id="m1122d6a2f4" d="M 0 0 
L 0 3.5 
" style="stroke: #000000; stroke-width: 0.8"/>
      </defs>
      <g>
       <use xlink:href="#m1122d6a2f4" x="115.363636" y="384.48" style="stroke: #000000; stroke-width: 0.8"/>
      </g>
     </g>
     <g id="text_1">
      <!-- 0.0 -->
      <g transform="translate(107.412074 399.078438) scale(0.1 -0.1)">
       <defs>
        <path id="DejaVuSans-30" d="M 2034 4250 
Q 1547 4250 1301 3770 
Q 1056 3291 1056 2328 
Q 1056 1369 1301 889 
Q 1547 409 2034 409 
Q 2525 409 2770 889 
Q 3016 1369 3016 2328 
Q 3016 3291 2770 3770 
Q 2525 4250 2034 4250 
z
M 2034 4750 
Q 2819 4750 3233 4129 
Q 3647 3509 3647 2328 
Q 3647 1150 3233 529 
Q 2819 -91 2034 -91 
Q 1250 -91 836 529 
Q 422 1150 422 2328 
Q 422 3509 836 4129 
Q 1250 4750 2034 4750 
z
" transform="scale(0.015625)"/>
        <path id="DejaVuSans-2e" d="M 684 794 
L 1344 794 
L 1344 0 
L 684 0 
L 684 794 
z
" transform="scale(0.015625)"/>
       </defs>
       <use xlink:href="#DejaVuSans-30"/>
       <use xlink:href="#DejaVuSans-2e" transform="translate(63.623047 0)"/>
       <use xlink:href="#DejaVuSans-30" transform="translate(95.410156 0)"/>
      </g>
     </g>
    </g>
    <g id="xtick_2">
     <g id="line2d_3">
      <path d="M 216.818182 384.48 
L 216.818182 51.84 
" clip-path="url(#p4f5ad34fcf)" style="fill: none; stroke: #b0b0b0; stroke-width: 0.8; stroke-linecap: square"/>
     </g>
     <g id="line2d_4">
      <g>
       <use xlink:href="#m1122d6a2f4" x="216.818182" y="384.48" style="stroke: #000000; stroke-width: 0.8"/>
      </g>
     </g>
     <g id="text_2">
      <!-- 0.2 -->
      <g transform="translate(208.866619 399.078438) scale(0.1 -0.1)">
       <defs>
        <path id="DejaVuSans-32" d="M 1228 531 
L 3431 531 
L 3431 0 
L 469 0 
L 469 531 
Q 828 903 1448 1529 
Q 2069 2156 2228 2338 
Q 2531 2678 2651 2914 
Q 2772 3150 2772 3378 
Q 2772 3750 2511 3984 
Q 2250 4219 1831 4219 
Q 1534 4219 1204 4116 
Q 875 4013 500 3803 
L 500 4441 
Q 881 4594 1212 4672 
Q 1544 4750 1819 4750 
Q 2544 4750 2975 4387 
Q 3406 4025 3406 3419 
Q 3406 3131 3298 2873 
Q 3191 2616 2906 2266 
Q 2828 2175 2409 1742 
Q 1991 1309 1228 531 
z
" transform="scale(0.015625)"/>
       </defs>
       <use xlink:href="#DejaVuSans-30"/>
       <use xlink:href="#DejaVuSans-2e" transform="translate(63.623047 0)"/>
       <use xlink:href="#DejaVuSans-32" transform="translate(95.410156 0)"/>
      </g>
     </g>
    </g>
    <g id="xtick_3">
     <g id="line2d_5">
      <path d="M 318.272727 384.48 
L 318.272727 51.84 
" clip-path="url(#p4f5ad34fcf)" style="fill: none; stroke: #b0b0b0; stroke-width: 0.8; stroke-linecap: square"/>
     </g>
     <g id="line2d_6">
      <g>
       <use xlink:href="#m1122d6a2f4" x="318.272727" y="384.48" style="stroke: #000000; stroke-width: 0.8"/>
      </g>
     </g>
     <g id="text_3">
      <!-- 0.4 -->
      <g transform="translate(310.321165 399.078438) scale(0.1 -0.1)">
       <defs>
        <path id="DejaVuSans-34" d="M 2419 4116 
L 825 1625 
L 2419 1625 
L 2419 4116 
z
M 2253 4666 
L 3047 4666 
L 3047 1625 
L 3713 1625 
L 3713 1100 
L 3047 1100 
L 3047 0 
L 2419 0 
L 2419 1100 
L 313 1100 
L 313 1709 
L 2253 4666 
z
" transform="scale(0.015625)"/>
       </defs>
       <use xlink:href="#DejaVuSans-30"/>
       <use xlink:href="#DejaVuSans-2e" transform="translate(63.623047 0)"/>
       <use xlink:href="#DejaVuSans-34" transform="translate(95.410156 0)"/>
      </g>
     </g>
    </g>
    <g id="xtick_4">
     <g id="line2d_7">
      <path d="M 419.727273 384.48 
L 419.727273 51.84 
" clip-path="url(#p4f5ad34fcf)" style="fill: none; stroke: #b0b0b0; stroke-width: 0.8; stroke-linecap: square"/>
     </g>
     <g id="line2d_8">
      <g>
       <use xlink:href="#m1122d6a2f4" x="419.727273" y="384.48" style="stroke: #000000; stroke-width: 0.8"/>
      </g>
     </g>
     <g id="text_4">
      <!-- 0.6 -->
      <g transform="translate(411.77571 399.078438) scale(0.1 -0.1)">
       <defs>
        <path id="DejaVuSans-36" d="M 2113 2584 
Q 1688 2584 1439 2293 
Q 1191 2003 1191 1497 
Q 1191 994 1439 701 
Q 1688 409 2113 409 
Q 2538 409 2786 701 
Q 3034 994 3034 1497 
Q 3034 2003 2786 2293 
Q 2538 2584 2113 2584 
z
M 3366 4563 
L 3366 3988 
Q 3128 4100 2886 4159 
Q 2644 4219 2406 4219 
Q 1781 4219 1451 3797 
Q 1122 3375 1075 2522 
Q 1259 2794 1537 2939 
Q 1816 3084 2150 3084 
Q 2853 3084 3261 2657 
Q 3669 2231 3669 1497 
Q 3669 778 3244 343 
Q 2819 -91 2113 -91 
Q 1303 -91 875 529 
Q 447 1150 447 2328 
Q 447 3434 972 4092 
Q 1497 4750 2381 4750 
Q 2619 4750 2861 4703 
Q 3103 4656 3366 4563 
z
" transform="scale(0.015625)"/>
       </defs>
       <use xlink:href="#DejaVuSans-30"/>
       <use xlink:href="#DejaVuSans-2e" transform="translate(63.623047 0)"/>
       <use xlink:href="#DejaVuSans-36" transform="translate(95.410156 0)"/>
      </g>
     </g>
    </g>
    <g id="xtick_5">
     <g id="line2d_9">
      <path d="M 521.181818 384.48 
L 521.181818 51.84 
" clip-path="url(#p4f5ad34fcf)" style="fill: none; stroke: #b0b0b0; stroke-width: 0.8; stroke-linecap: square"/>
     </g>
     <g id="line2d_10">
      <g>
       <use xlink:href="#m1122d6a2f4" x="521.181818" y="384.48" style="stroke: #000000; stroke-width: 0.8"/>
      </g>
     </g>
     <g id="text_5">
      <!-- 0.8 -->
      <g transform="translate(513.230256 399.078438) scale(0.1 -0.1)">
       <defs>
        <path id="DejaVuSans-38" d="M 2034 2216 
Q 1584 2216 1326 1975 
Q 1069 1734 1069 1313 
Q 1069 891 1326 650 
Q 1584 409 2034 409 
Q 2484 409 2743 651 
Q 3003 894 3003 1313 
Q 3003 1734 2745 1975 
Q 2488 2216 2034 2216 
z
M 1403 2484 
Q 997 2584 770 2862 
Q 544 3141 544 3541 
Q 544 4100 942 4425 
Q 1341 4750 2034 4750 
Q 2731 4750 3128 4425 
Q 3525 4100 3525 3541 
Q 3525 3141 3298 2862 
Q 3072 2584 2669 2484 
Q 3125 2378 3379 2068 
Q 3634 1759 3634 1313 
Q 3634 634 3220 271 
Q 2806 -91 2034 -91 
Q 1263 -91 848 271 
Q 434 634 434 1313 
Q 434 1759 690 2068 
Q 947 2378 1403 2484 
z
M 1172 3481 
Q 1172 3119 1398 2916 
Q 1625 2713 2034 2713 
Q 2441 2713 2670 2916 
Q 2900 3119 2900 3481 
Q 2900 3844 2670 4047 
Q 2441 4250 2034 4250 
Q 1625 4250 1398 4047 
Q 1172 3844 1172 3481 
z
" transform="scale(0.015625)"/>
       </defs>
       <use xlink:href="#DejaVuSans-30"/>
       <use xlink:href="#DejaVuSans-2e" transform="translate(63.623047 0)"/>
       <use xlink:href="#DejaVuSans-38" transform="translate(95.410156 0)"/>
      </g>
     </g>
    </g>
    <g id="xtick_6">
     <g id="line2d_11">
      <path d="M 622.636364 384.48 
L 622.636364 51.84 
" clip-path="url(#p4f5ad34fcf)" style="fill: none; stroke: #b0b0b0; stroke-width: 0.8; stroke-linecap: square"/>
     </g>
     <g id="line2d_12">
      <g>
       <use xlink:href="#m1122d6a2f4" x="622.636364" y="384.48" style="stroke: #000000; stroke-width: 0.8"/>
      </g>
     </g>
     <g id="text_6">
      <!-- 1.0 -->
      <g transform="translate(614.684801 399.078438) scale(0.1 -0.1)">
       <defs>
        <path id="DejaVuSans-31" d="M 794 531 
L 1825 531 
L 1825 4091 
L 703 3866 
L 703 4441 
L 1819 4666 
L 2450 4666 
L 2450 531 
L 3481 531 
L 3481 0 
L 794 0 
L 794 531 
z
" transform="scale(0.015625)"/>
       </defs>
       <use xlink:href="#DejaVuSans-31"/>
       <use xlink:href="#DejaVuSans-2e" transform="translate(63.623047 0)"/>
       <use xlink:href="#DejaVuSans-30" transform="translate(95.410156 0)"/>
      </g>
     </g>
    </g>
    <g id="text_7">
     <!-- Position (x) -->
     <g transform="translate(341.085938 412.756563) scale(0.1 -0.1)">
      <defs>
       <path id="DejaVuSans-50" d="M 1259 4147 
L 1259 2394 
L 2053 2394 
Q 2494 2394 2734 2622 
Q 2975 2850 2975 3272 
Q 2975 3691 2734 3919 
Q 2494 4147 2053 4147 
L 1259 4147 
z
M 628 4666 
L 2053 4666 
Q 2838 4666 3239 4311 
Q 3641 3956 3641 3272 
Q 3641 2581 3239 2228 
Q 2838 1875 2053 1875 
L 1259 1875 
L 1259 0 
L 628 0 
L 628 4666 
z
" transform="scale(0.015625)"/>
       <path id="DejaVuSans-6f" d="M 1959 3097 
Q 1497 3097 1228 2736 
Q 959 2375 959 1747 
Q 959 1119 1226 758 
Q 1494 397 1959 397 
Q 2419 397 2687 759 
Q 2956 1122 2956 1747 
Q 2956 2369 2687 2733 
Q 2419 3097 1959 3097 
z
M 1959 3584 
Q 2709 3584 3137 3096 
Q 3566 2609 3566 1747 
Q 3566 888 3137 398 
Q 2709 -91 1959 -91 
Q 1206 -91 779 398 
Q 353 888 353 1747 
Q 353 2609 779 3096 
Q 1206 3584 1959 3584 
z
" transform="scale(0.015625)"/>
       <path id="DejaVuSans-73" d="M 2834 3397 
L 2834 2853 
Q 2591 2978 2328 3040 
Q 2066 3103 1784 3103 
Q 1356 3103 1142 2972 
Q 928 2841 928 2578 
Q 928 2378 1081 2264 
Q 1234 2150 1697 2047 
L 1894 2003 
Q 2506 1872 2764 1633 
Q 3022 1394 3022 966 
Q 3022 478 2636 193 
Q 2250 -91 1575 -91 
Q 1294 -91 989 -36 
Q 684 19 347 128 
L 347 722 
Q 666 556 975 473 
Q 1284 391 1588 391 
Q 1994 391 2212 530 
Q 2431 669 2431 922 
Q 2431 1156 2273 1281 
Q 2116 1406 1581 1522 
L 1381 1569 
Q 847 1681 609 1914 
Q 372 2147 372 2553 
Q 372 3047 722 3315 
Q 1072 3584 1716 3584 
Q 2034 3584 2315 3537 
Q 2597 3491 2834 3397 
z
" transform="scale(0.015625)"/>
       <path id="DejaVuSans-69" d="M 603 3500 
L 1178 3500 
L 1178 0 
L 603 0 
L 603 3500 
z
M 603 4863 
L 1178 4863 
L 1178 4134 
L 603 4134 
L 603 4863 
z
" transform="scale(0.015625)"/>
       <path id="DejaVuSans-74" d="M 1172 4494 
L 1172 3500 
L 2356 3500 
L 2356 3053 
L 1172 3053 
L 1172 1153 
Q 1172 725 1289 603 
Q 1406 481 1766 481 
L 2356 481 
L 2356 0 
L 1766 0 
Q 1100 0 847 248 
Q 594 497 594 1153 
L 594 3053 
L 172 3053 
L 172 3500 
L 594 3500 
L 594 4494 
L 1172 4494 
z
" transform="scale(0.015625)"/>
       <path id="DejaVuSans-6e" d="M 3513 2113 
L 3513 0 
L 2938 0 
L 2938 2094 
Q 2938 2591 2744 2837 
Q 2550 3084 2163 3084 
Q 1697 3084 1428 2787 
Q 1159 2491 1159 1978 
L 1159 0 
L 581 0 
L 581 3500 
L 1159 3500 
L 1159 2956 
Q 1366 3272 1645 3428 
Q 1925 3584 2291 3584 
Q 2894 3584 3203 3211 
Q 3513 2838 3513 2113 
z
" transform="scale(0.015625)"/>
       <path id="DejaVuSans-20" transform="scale(0.015625)"/>
       <path id="DejaVuSans-28" d="M 1984 4856 
Q 1566 4138 1362 3434 
Q 1159 2731 1159 2009 
Q 1159 1288 1364 580 
Q 1569 -128 1984 -844 
L 1484 -844 
Q 1016 -109 783 600 
Q 550 1309 550 2009 
Q 550 2706 781 3412 
Q 1013 4119 1484 4856 
L 1984 4856 
z
" transform="scale(0.015625)"/>
       <path id="DejaVuSans-78" d="M 3513 3500 
L 2247 1797 
L 3578 0 
L 2900 0 
L 1881 1375 
L 863 0 
L 184 0 
L 1544 1831 
L 300 3500 
L 978 3500 
L 1906 2253 
L 2834 3500 
L 3513 3500 
z
" transform="scale(0.015625)"/>
       <path id="DejaVuSans-29" d="M 513 4856 
L 1013 4856 
Q 1481 4119 1714 3412 
Q 1947 2706 1947 2009 
Q 1947 1309 1714 600 
Q 1481 -109 1013 -844 
L 513 -844 
Q 928 -128 1133 580 
Q 1338 1288 1338 2009 
Q 1338 2731 1133 3434 
Q 928 4138 513 4856 
z
" transform="scale(0.015625)"/>
      </defs>
      <use xlink:href="#DejaVuSans-50"/>
      <use xlink:href="#DejaVuSans-6f" transform="translate(56.677734 0)"/>
      <use xlink:href="#DejaVuSans-73" transform="translate(117.859375 0)"/>
      <use xlink:href="#DejaVuSans-69" transform="translate(169.958984 0)"/>
      <use xlink:href="#DejaVuSans-74" transform="translate(197.742188 0)"/>
      <use xlink:href="#DejaVuSans-69" transform="translate(236.951172 0)"/>
      <use xlink:href="#DejaVuSans-6f" transform="translate(264.734375 0)"/>
      <use xlink:href="#DejaVuSans-6e" transform="translate(325.916016 0)"/>
      <use xlink:href="#DejaVuSans-20" transform="translate(389.294922 0)"/>
      <use xlink:href="#DejaVuSans-28" transform="translate(421.082031 0)"/>
      <use xlink:href="#DejaVuSans-78" transform="translate(460.095703 0)"/>
      <use xlink:href="#DejaVuSans-29" transform="translate(519.275391 0)"/>
     </g>
    </g>
   </g>
   <g id="matplotlib.axis_2">
    <g id="ytick_1">
     <g id="line2d_13">
      <path d="M 90 368.988941 
L 648 368.988941 
" clip-path="url(#p4f5ad34fcf)" style="fill: none; stroke: #b0b0b0; stroke-width: 0.8; stroke-linecap: square"/>
     </g>
     <g id="line2d_14">
      <defs>
       <path id="mab62c5500b" d="M 0 0 
L -3.5 0 
" style="stroke: #000000; stroke-width: 0.8"/>
      </defs>
      <g>
       <use xlink:href="#mab62c5500b" x="90" y="368.988941" style="stroke: #000000; stroke-width: 0.8"/>
      </g>
     </g>
     <g id="text_8">
      <!-- −1.00 -->
      <g transform="translate(52.354687 372.78816) scale(0.1 -0.1)">
       <defs>
        <path id="DejaVuSans-2212" d="M 678 2272 
L 4684 2272 
L 4684 1741 
L 678 1741 
L 678 2272 
z
" transform="scale(0.015625)"/>
       </defs>
       <use xlink:href="#DejaVuSans-2212"/>
       <use xlink:href="#DejaVuSans-31" transform="translate(83.789062 0)"/>
       <use xlink:href="#DejaVuSans-2e" transform="translate(147.412109 0)"/>
       <use xlink:href="#DejaVuSans-30" transform="translate(179.199219 0)"/>
       <use xlink:href="#DejaVuSans-30" transform="translate(242.822266 0)"/>
      </g>
     </g>
    </g>
    <g id="ytick_2">
     <g id="line2d_15">
      <path d="M 90 331.281706 
L 648 331.281706 
" clip-path="url(#p4f5ad34fcf)" style="fill: none; stroke: #b0b0b0; stroke-width: 0.8; stroke-linecap: square"/>
     </g>
     <g id="line2d_16">
      <g>
       <use xlink:href="#mab62c5500b" x="90" y="331.281706" style="stroke: #000000; stroke-width: 0.8"/>
      </g>
     </g>
     <g id="text_9">
      <!-- −0.75 -->
      <g transform="translate(52.354687 335.080925) scale(0.1 -0.1)">
       <defs>
        <path id="DejaVuSans-37" d="M 525 4666 
L 3525 4666 
L 3525 4397 
L 1831 0 
L 1172 0 
L 2766 4134 
L 525 4134 
L 525 4666 
z
" transform="scale(0.015625)"/>
        <path id="DejaVuSans-35" d="M 691 4666 
L 3169 4666 
L 3169 4134 
L 1269 4134 
L 1269 2991 
Q 1406 3038 1543 3061 
Q 1681 3084 1819 3084 
Q 2600 3084 3056 2656 
Q 3513 2228 3513 1497 
Q 3513 744 3044 326 
Q 2575 -91 1722 -91 
Q 1428 -91 1123 -41 
Q 819 9 494 109 
L 494 744 
Q 775 591 1075 516 
Q 1375 441 1709 441 
Q 2250 441 2565 725 
Q 2881 1009 2881 1497 
Q 2881 1984 2565 2268 
Q 2250 2553 1709 2553 
Q 1456 2553 1204 2497 
Q 953 2441 691 2322 
L 691 4666 
z
" transform="scale(0.015625)"/>
       </defs>
       <use xlink:href="#DejaVuSans-2212"/>
       <use xlink:href="#DejaVuSans-30" transform="translate(83.789062 0)"/>
       <use xlink:href="#DejaVuSans-2e" transform="translate(147.412109 0)"/>
       <use xlink:href="#DejaVuSans-37" transform="translate(179.199219 0)"/>
       <use xlink:href="#DejaVuSans-35" transform="translate(242.822266 0)"/>
      </g>
     </g>
    </g>
    <g id="ytick_3">
     <g id="line2d_17">
      <path d="M 90 293.574471 
L 648 293.574471 
" clip-path="url(#p4f5ad34fcf)" style="fill: none; stroke: #b0b0b0; stroke-width: 0.8; stroke-linecap: square"/>
     </g>
     <g id="line2d_18">
      <g>
       <use xlink:href="#mab62c5500b" x="90" y="293.574471" style="stroke: #000000; stroke-width: 0.8"/>
      </g>
     </g>
     <g id="text_10">
      <!-- −0.50 -->
      <g transform="translate(52.354687 297.373689) scale(0.1 -0.1)">
       <use xlink:href="#DejaVuSans-2212"/>
       <use xlink:href="#DejaVuSans-30" transform="translate(83.789062 0)"/>
       <use xlink:href="#DejaVuSans-2e" transform="translate(147.412109 0)"/>
       <use xlink:href="#DejaVuSans-35" transform="translate(179.199219 0)"/>
       <use xlink:href="#DejaVuSans-30" transform="translate(242.822266 0)"/>
      </g>
     </g>
    </g>
    <g id="ytick_4">
     <g id="line2d_19">
      <path d="M 90 255.867235 
L 648 255.867235 
" clip-path="url(#p4f5ad34fcf)" style="fill: none; stroke: #b0b0b0; stroke-width: 0.8; stroke-linecap: square"/>
     </g>
     <g id="line2d_20">
      <g>
       <use xlink:href="#mab62c5500b" x="90" y="255.867235" style="stroke: #000000; stroke-width: 0.8"/>
      </g>
     </g>
     <g id="text_11">
      <!-- −0.25 -->
      <g transform="translate(52.354687 259.666454) scale(0.1 -0.1)">
       <use xlink:href="#DejaVuSans-2212"/>
       <use xlink:href="#DejaVuSans-30" transform="translate(83.789062 0)"/>
       <use xlink:href="#DejaVuSans-2e" transform="translate(147.412109 0)"/>
       <use xlink:href="#DejaVuSans-32" transform="translate(179.199219 0)"/>
       <use xlink:href="#DejaVuSans-35" transform="translate(242.822266 0)"/>
      </g>
     </g>
    </g>
    <g id="ytick_5">
     <g id="line2d_21">
      <path d="M 90 218.16 
L 648 218.16 
" clip-path="url(#p4f5ad34fcf)" style="fill: none; stroke: #b0b0b0; stroke-width: 0.8; stroke-linecap: square"/>
     </g>
     <g id="line2d_22">
      <g>
       <use xlink:href="#mab62c5500b" x="90" y="218.16" style="stroke: #000000; stroke-width: 0.8"/>
      </g>
     </g>
     <g id="text_12">
      <!-- 0.00 -->
      <g transform="translate(60.734375 221.959219) scale(0.1 -0.1)">
       <use xlink:href="#DejaVuSans-30"/>
       <use xlink:href="#DejaVuSans-2e" transform="translate(63.623047 0)"/>
       <use xlink:href="#DejaVuSans-30" transform="translate(95.410156 0)"/>
       <use xlink:href="#DejaVuSans-30" transform="translate(159.033203 0)"/>
      </g>
     </g>
    </g>
    <g id="ytick_6">
     <g id="line2d_23">
      <path d="M 90 180.452765 
L 648 180.452765 
" clip-path="url(#p4f5ad34fcf)" style="fill: none; stroke: #b0b0b0; stroke-width: 0.8; stroke-linecap: square"/>
     </g>
     <g id="line2d_24">
      <g>
       <use xlink:href="#mab62c5500b" x="90" y="180.452765" style="stroke: #000000; stroke-width: 0.8"/>
      </g>
     </g>
     <g id="text_13">
      <!-- 0.25 -->
      <g transform="translate(60.734375 184.251983) scale(0.1 -0.1)">
       <use xlink:href="#DejaVuSans-30"/>
       <use xlink:href="#DejaVuSans-2e" transform="translate(63.623047 0)"/>
       <use xlink:href="#DejaVuSans-32" transform="translate(95.410156 0)"/>
       <use xlink:href="#DejaVuSans-35" transform="translate(159.033203 0)"/>
      </g>
     </g>
    </g>
    <g id="ytick_7">
     <g id="line2d_25">
      <path d="M 90 142.745529 
L 648 142.745529 
" clip-path="url(#p4f5ad34fcf)" style="fill: none; stroke: #b0b0b0; stroke-width: 0.8; stroke-linecap: square"/>
     </g>
     <g id="line2d_26">
      <g>
       <use xlink:href="#mab62c5500b" x="90" y="142.745529" style="stroke: #000000; stroke-width: 0.8"/>
      </g>
     </g>
     <g id="text_14">
      <!-- 0.50 -->
      <g transform="translate(60.734375 146.544748) scale(0.1 -0.1)">
       <use xlink:href="#DejaVuSans-30"/>
       <use xlink:href="#DejaVuSans-2e" transform="translate(63.623047 0)"/>
       <use xlink:href="#DejaVuSans-35" transform="translate(95.410156 0)"/>
       <use xlink:href="#DejaVuSans-30" transform="translate(159.033203 0)"/>
      </g>
     </g>
    </g>
    <g id="ytick_8">
     <g id="line2d_27">
      <path d="M 90 105.038294 
L 648 105.038294 
" clip-path="url(#p4f5ad34fcf)" style="fill: none; stroke: #b0b0b0; stroke-width: 0.8; stroke-linecap: square"/>
     </g>
     <g id="line2d_28">
      <g>
       <use xlink:href="#mab62c5500b" x="90" y="105.038294" style="stroke: #000000; stroke-width: 0.8"/>
      </g>
     </g>
     <g id="text_15">
      <!-- 0.75 -->
      <g transform="translate(60.734375 108.837513) scale(0.1 -0.1)">
       <use xlink:href="#DejaVuSans-30"/>
       <use xlink:href="#DejaVuSans-2e" transform="translate(63.623047 0)"/>
       <use xlink:href="#DejaVuSans-37" transform="translate(95.410156 0)"/>
       <use xlink:href="#DejaVuSans-35" transform="translate(159.033203 0)"/>
      </g>
     </g>
    </g>
    <g id="ytick_9">
     <g id="line2d_29">
      <path d="M 90 67.331059 
L 648 67.331059 
" clip-path="url(#p4f5ad34fcf)" style="fill: none; stroke: #b0b0b0; stroke-width: 0.8; stroke-linecap: square"/>
     </g>
     <g id="line2d_30">
      <g>
       <use xlink:href="#mab62c5500b" x="90" y="67.331059" style="stroke: #000000; stroke-width: 0.8"/>
      </g>
     </g>
     <g id="text_16">
      <!-- 1.00 -->
      <g transform="translate(60.734375 71.130277) scale(0.1 -0.1)">
       <use xlink:href="#DejaVuSans-31"/>
       <use xlink:href="#DejaVuSans-2e" transform="translate(63.623047 0)"/>
       <use xlink:href="#DejaVuSans-30" transform="translate(95.410156 0)"/>
       <use xlink:href="#DejaVuSans-30" transform="translate(159.033203 0)"/>
      </g>
     </g>
    </g>
    <g id="text_17">
     <!-- Displacement (y) -->
     <g transform="translate(46.275 260.982656) rotate(-90) scale(0.1 -0.1)">
      <defs>
       <path id="DejaVuSans-44" d="M 1259 4147 
L 1259 519 
L 2022 519 
Q 2988 519 3436 956 
Q 3884 1394 3884 2338 
Q 3884 3275 3436 3711 
Q 2988 4147 2022 4147 
L 1259 4147 
z
M 628 4666 
L 1925 4666 
Q 3281 4666 3915 4102 
Q 4550 3538 4550 2338 
Q 4550 1131 3912 565 
Q 3275 0 1925 0 
L 628 0 
L 628 4666 
z
" transform="scale(0.015625)"/>
       <path id="DejaVuSans-70" d="M 1159 525 
L 1159 -1331 
L 581 -1331 
L 581 3500 
L 1159 3500 
L 1159 2969 
Q 1341 3281 1617 3432 
Q 1894 3584 2278 3584 
Q 2916 3584 3314 3078 
Q 3713 2572 3713 1747 
Q 3713 922 3314 415 
Q 2916 -91 2278 -91 
Q 1894 -91 1617 61 
Q 1341 213 1159 525 
z
M 3116 1747 
Q 3116 2381 2855 2742 
Q 2594 3103 2138 3103 
Q 1681 3103 1420 2742 
Q 1159 2381 1159 1747 
Q 1159 1113 1420 752 
Q 1681 391 2138 391 
Q 2594 391 2855 752 
Q 3116 1113 3116 1747 
z
" transform="scale(0.015625)"/>
       <path id="DejaVuSans-6c" d="M 603 4863 
L 1178 4863 
L 1178 0 
L 603 0 
L 603 4863 
z
" transform="scale(0.015625)"/>
       <path id="DejaVuSans-61" d="M 2194 1759 
Q 1497 1759 1228 1600 
Q 959 1441 959 1056 
Q 959 750 1161 570 
Q 1363 391 1709 391 
Q 2188 391 2477 730 
Q 2766 1069 2766 1631 
L 2766 1759 
L 2194 1759 
z
M 3341 1997 
L 3341 0 
L 2766 0 
L 2766 531 
Q 2569 213 2275 61 
Q 1981 -91 1556 -91 
Q 1019 -91 701 211 
Q 384 513 384 1019 
Q 384 1609 779 1909 
Q 1175 2209 1959 2209 
L 2766 2209 
L 2766 2266 
Q 2766 2663 2505 2880 
Q 2244 3097 1772 3097 
Q 1472 3097 1187 3025 
Q 903 2953 641 2809 
L 641 3341 
Q 956 3463 1253 3523 
Q 1550 3584 1831 3584 
Q 2591 3584 2966 3190 
Q 3341 2797 3341 1997 
z
" transform="scale(0.015625)"/>
       <path id="DejaVuSans-63" d="M 3122 3366 
L 3122 2828 
Q 2878 2963 2633 3030 
Q 2388 3097 2138 3097 
Q 1578 3097 1268 2742 
Q 959 2388 959 1747 
Q 959 1106 1268 751 
Q 1578 397 2138 397 
Q 2388 397 2633 464 
Q 2878 531 3122 666 
L 3122 134 
Q 2881 22 2623 -34 
Q 2366 -91 2075 -91 
Q 1284 -91 818 406 
Q 353 903 353 1747 
Q 353 2603 823 3093 
Q 1294 3584 2113 3584 
Q 2378 3584 2631 3529 
Q 2884 3475 3122 3366 
z
" transform="scale(0.015625)"/>
       <path id="DejaVuSans-65" d="M 3597 1894 
L 3597 1613 
L 953 1613 
Q 991 1019 1311 708 
Q 1631 397 2203 397 
Q 2534 397 2845 478 
Q 3156 559 3463 722 
L 3463 178 
Q 3153 47 2828 -22 
Q 2503 -91 2169 -91 
Q 1331 -91 842 396 
Q 353 884 353 1716 
Q 353 2575 817 3079 
Q 1281 3584 2069 3584 
Q 2775 3584 3186 3129 
Q 3597 2675 3597 1894 
z
M 3022 2063 
Q 3016 2534 2758 2815 
Q 2500 3097 2075 3097 
Q 1594 3097 1305 2825 
Q 1016 2553 972 2059 
L 3022 2063 
z
" transform="scale(0.015625)"/>
       <path id="DejaVuSans-6d" d="M 3328 2828 
Q 3544 3216 3844 3400 
Q 4144 3584 4550 3584 
Q 5097 3584 5394 3201 
Q 5691 2819 5691 2113 
L 5691 0 
L 5113 0 
L 5113 2094 
Q 5113 2597 4934 2840 
Q 4756 3084 4391 3084 
Q 3944 3084 3684 2787 
Q 3425 2491 3425 1978 
L 3425 0 
L 2847 0 
L 2847 2094 
Q 2847 2600 2669 2842 
Q 2491 3084 2119 3084 
Q 1678 3084 1418 2786 
Q 1159 2488 1159 1978 
L 1159 0 
L 581 0 
L 581 3500 
L 1159 3500 
L 1159 2956 
Q 1356 3278 1631 3431 
Q 1906 3584 2284 3584 
Q 2666 3584 2933 3390 
Q 3200 3197 3328 2828 
z
" transform="scale(0.015625)"/>
       <path id="DejaVuSans-79" d="M 2059 -325 
Q 1816 -950 1584 -1140 
Q 1353 -1331 966 -1331 
L 506 -1331 
L 506 -850 
L 844 -850 
Q 1081 -850 1212 -737 
Q 1344 -625 1503 -206 
L 1606 56 
L 191 3500 
L 800 3500 
L 1894 763 
L 2988 3500 
L 3597 3500 
L 2059 -325 
z
" transform="scale(0.015625)"/>
      </defs>
      <use xlink:href="#DejaVuSans-44"/>
      <use xlink:href="#DejaVuSans-69" transform="translate(77.001953 0)"/>
      <use xlink:href="#DejaVuSans-73" transform="translate(104.785156 0)"/>
      <use xlink:href="#DejaVuSans-70" transform="translate(156.884766 0)"/>
      <use xlink:href="#DejaVuSans-6c" transform="translate(220.361328 0)"/>
      <use xlink:href="#DejaVuSans-61" transform="translate(248.144531 0)"/>
      <use xlink:href="#DejaVuSans-63" transform="translate(309.423828 0)"/>
      <use xlink:href="#DejaVuSans-65" transform="translate(364.404297 0)"/>
      <use xlink:href="#DejaVuSans-6d" transform="translate(425.927734 0)"/>
      <use xlink:href="#DejaVuSans-65" transform="translate(523.339844 0)"/>
      <use xlink:href="#DejaVuSans-6e" transform="translate(584.863281 0)"/>
      <use xlink:href="#DejaVuSans-74" transform="translate(648.242188 0)"/>
      <use xlink:href="#DejaVuSans-20" transform="translate(687.451172 0)"/>
      <use xlink:href="#DejaVuSans-28" transform="translate(719.238281 0)"/>
      <use xlink:href="#DejaVuSans-79" transform="translate(758.251953 0)"/>
      <use xlink:href="#DejaVuSans-29" transform="translate(817.431641 0)"/>
     </g>
    </g>
   </g>
   <g id="line2d_31">
    <path d="M 115.363636 218.16 
L 120.436364 194.565155 
L 125.509091 171.551294 
L 130.581818 149.685094 
L 135.654545 129.504973 
L 140.727273 111.507833 
L 145.8 96.136823 
L 150.872727 83.770429 
L 155.945455 74.713152 
L 161.018182 69.188013 
L 166.090909 67.331059 
L 171.163636 69.188013 
L 176.236364 74.713152 
L 181.309091 83.770429 
L 186.381818 96.136823 
L 191.454545 111.507833 
L 196.527273 129.504973 
L 201.6 149.685094 
L 206.672727 171.551294 
L 211.745455 194.565155 
L 216.818182 218.16 
L 221.890909 241.754845 
L 226.963636 264.768706 
L 232.036364 286.634906 
L 237.109091 306.815027 
L 242.181818 324.812167 
L 247.254545 340.183177 
L 252.327273 352.549571 
L 257.4 361.606848 
L 262.472727 367.131987 
L 267.545455 368.988941 
L 272.618182 367.131987 
L 277.690909 361.606848 
L 282.763636 352.549571 
L 287.836364 340.183177 
L 292.909091 324.812167 
L 297.981818 306.815027 
L 303.054545 286.634906 
L 308.127273 264.768706 
L 313.2 241.754845 
L 318.272727 218.16 
L 323.345455 194.565155 
L 328.418182 171.551294 
L 333.490909 149.685094 
L 338.563636 129.504973 
L 343.636364 111.507833 
L 348.709091 96.136823 
L 353.781818 83.770429 
L 358.854545 74.713152 
L 363.927273 69.188013 
L 369 67.331059 
L 374.072727 69.188013 
L 379.145455 74.713152 
L 384.218182 83.770429 
L 389.290909 96.136823 
L 394.363636 111.507833 
L 399.436364 129.504973 
L 404.509091 149.685094 
L 409.581818 171.551294 
L 414.654545 194.565155 
L 419.727273 218.16 
L 424.8 241.754845 
L 429.872727 264.768706 
L 434.945455 286.634906 
L 440.018182 306.815027 
L 445.090909 324.812167 
L 450.163636 340.183177 
L 455.236364 352.549571 
L 460.309091 361.606848 
L 465.381818 367.131987 
L 470.454545 368.988941 
L 475.527273 367.131987 
L 480.6 361.606848 
L 485.672727 352.549571 
L 490.745455 340.183177 
L 495.818182 324.812167 
L 500.890909 306.815027 
L 505.963636 286.634906 
L 511.036364 264.768706 
L 516.109091 241.754845 
L 521.181818 218.16 
L 526.254545 194.565155 
L 531.327273 171.551294 
L 536.4 149.685094 
L 541.472727 129.504973 
L 546.545455 111.507833 
L 551.618182 96.136823 
L 556.690909 83.770429 
L 561.763636 74.713152 
L 566.836364 69.188013 
L 571.909091 67.331059 
L 576.981818 69.188013 
L 582.054545 74.713152 
L 587.127273 83.770429 
L 592.2 96.136823 
L 597.272727 111.507833 
L 602.345455 129.504973 
L 607.418182 149.685094 
L 612.490909 171.551294 
L 617.563636 194.565155 
L 622.636364 218.16 
" clip-path="url(#p4f5ad34fcf)" style="fill: none; stroke: #1f77b4; stroke-width: 1.5; stroke-linecap: square"/>
   </g>
   <g id="line2d_32">
    <path d="M 115.363636 218.16 
L 120.436364 225.418402 
L 125.509091 232.498079 
L 130.581818 239.224704 
L 135.654545 245.432646 
L 140.727273 250.969046 
L 145.8 255.697577 
L 150.872727 259.501809 
L 155.945455 262.288069 
L 161.018182 263.987749 
L 166.090909 264.558997 
L 171.163636 263.987749 
L 176.236364 262.288069 
L 181.309091 259.501809 
L 186.381818 255.697577 
L 191.454545 250.969046 
L 196.527273 245.432646 
L 201.6 239.224704 
L 206.672727 232.498079 
L 211.745455 225.418402 
L 216.818182 218.16 
L 221.890909 210.901598 
L 226.963636 203.821921 
L 232.036364 197.095296 
L 237.109091 190.887354 
L 242.181818 185.350954 
L 247.254545 180.622423 
L 252.327273 176.818191 
L 257.4 174.031931 
L 262.472727 172.332251 
L 267.545455 171.761003 
L 272.618182 172.332251 
L 277.690909 174.031931 
L 282.763636 176.818191 
L 287.836364 180.622423 
L 292.909091 185.350954 
L 297.981818 190.887354 
L 303.054545 197.095296 
L 308.127273 203.821921 
L 313.2 210.901598 
L 318.272727 218.16 
L 323.345455 225.418402 
L 328.418182 232.498079 
L 333.490909 239.224704 
L 338.563636 245.432646 
L 343.636364 250.969046 
L 348.709091 255.697577 
L 353.781818 259.501809 
L 358.854545 262.288069 
L 363.927273 263.987749 
L 369 264.558997 
L 374.072727 263.987749 
L 379.145455 262.288069 
L 384.218182 259.501809 
L 389.290909 255.697577 
L 394.363636 250.969046 
L 399.436364 245.432646 
L 404.509091 239.224704 
L 409.581818 232.498079 
L 414.654545 225.418402 
L 419.727273 218.16 
L 424.8 210.901598 
L 429.872727 203.821921 
L 434.945455 197.095296 
L 440.018182 190.887354 
L 445.090909 185.350954 
L 450.163636 180.622423 
L 455.236364 176.818191 
L 460.309091 174.031931 
L 465.381818 172.332251 
L 470.454545 171.761003 
L 475.527273 172.332251 
L 480.6 174.031931 
L 485.672727 176.818191 
L 490.745455 180.622423 
L 495.818182 185.350954 
L 500.890909 190.887354 
L 505.963636 197.095296 
L 511.036364 203.821921 
L 516.109091 210.901598 
L 521.181818 218.16 
L 526.254545 225.418402 
L 531.327273 232.498079 
L 536.4 239.224704 
L 541.472727 245.432646 
L 546.545455 250.969046 
L 551.618182 255.697577 
L 556.690909 259.501809 
L 561.763636 262.288069 
L 566.836364 263.987749 
L 571.909091 264.558997 
L 576.981818 263.987749 
L 582.054545 262.288069 
L 587.127273 259.501809 
L 592.2 255.697577 
L 597.272727 250.969046 
L 602.345455 245.432646 
L 607.418182 239.224704 
L 612.490909 232.498079 
L 617.563636 225.418402 
L 622.636364 218.16 
" clip-path="url(#p4f5ad34fcf)" style="fill: none; stroke: #ff7f0e; stroke-width: 1.5; stroke-linecap: square"/>
   </g>
   <g id="line2d_33">
    <path d="M 115.363636 218.16 
L 120.436364 241.812891 
L 125.509091 264.88337 
L 130.581818 286.803364 
L 135.654545 307.03313 
L 140.727273 325.074545 
L 145.8 340.48337 
L 150.872727 352.880186 
L 155.945455 361.959745 
L 161.018182 367.498477 
L 166.090909 369.36 
L 171.163636 367.498477 
L 176.236364 361.959745 
L 181.309091 352.880186 
L 186.381818 340.48337 
L 191.454545 325.074545 
L 196.527273 307.03313 
L 201.6 286.803364 
L 206.672727 264.88337 
L 211.745455 241.812891 
L 216.818182 218.16 
L 221.890909 194.507109 
L 226.963636 171.43663 
L 232.036364 149.516636 
L 237.109091 129.28687 
L 242.181818 111.245455 
L 247.254545 95.83663 
L 252.327273 83.439814 
L 257.4 74.360255 
L 262.472727 68.821523 
L 267.545455 66.96 
L 272.618182 68.821523 
L 277.690909 74.360255 
L 282.763636 83.439814 
L 287.836364 95.83663 
L 292.909091 111.245455 
L 297.981818 129.28687 
L 303.054545 149.516636 
L 308.127273 171.43663 
L 313.2 194.507109 
L 318.272727 218.16 
L 323.345455 241.812891 
L 328.418182 264.88337 
L 333.490909 286.803364 
L 338.563636 307.03313 
L 343.636364 325.074545 
L 348.709091 340.48337 
L 353.781818 352.880186 
L 358.854545 361.959745 
L 363.927273 367.498477 
L 369 369.36 
L 374.072727 367.498477 
L 379.145455 361.959745 
L 384.218182 352.880186 
L 389.290909 340.48337 
L 394.363636 325.074545 
L 399.436364 307.03313 
L 404.509091 286.803364 
L 409.581818 264.88337 
L 414.654545 241.812891 
L 419.727273 218.16 
L 424.8 194.507109 
L 429.872727 171.43663 
L 434.945455 149.516636 
L 440.018182 129.28687 
L 445.090909 111.245455 
L 450.163636 95.83663 
L 455.236364 83.439814 
L 460.309091 74.360255 
L 465.381818 68.821523 
L 470.454545 66.96 
L 475.527273 68.821523 
L 480.6 74.360255 
L 485.672727 83.439814 
L 490.745455 95.83663 
L 495.818182 111.245455 
L 500.890909 129.28687 
L 505.963636 149.516636 
L 511.036364 171.43663 
L 516.109091 194.507109 
L 521.181818 218.16 
L 526.254545 241.812891 
L 531.327273 264.88337 
L 536.4 286.803364 
L 541.472727 307.03313 
L 546.545455 325.074545 
L 551.618182 340.48337 
L 556.690909 352.880186 
L 561.763636 361.959745 
L 566.836364 367.498477 
L 571.909091 369.36 
L 576.981818 367.498477 
L 582.054545 361.959745 
L 587.127273 352.880186 
L 592.2 340.48337 
L 597.272727 325.074545 
L 602.345455 307.03313 
L 607.418182 286.803364 
L 612.490909 264.88337 
L 617.563636 241.812891 
L 622.636364 218.16 
" clip-path="url(#p4f5ad34fcf)" style="fill: none; stroke: #2ca02c; stroke-width: 1.5; stroke-linecap: square"/>
   </g>
   <g id="line2d_34">
    <path d="M 115.363636 218.16 
L 120.436364 201.4989 
L 125.509091 185.248051 
L 130.581818 169.807604 
L 135.654545 155.557753 
L 140.727273 142.849377 
L 145.8 131.995399 
L 150.872727 123.263079 
L 155.945455 116.867436 
L 161.018182 112.965953 
L 166.090909 111.654696 
L 171.163636 112.965953 
L 176.236364 116.867436 
L 181.309091 123.263079 
L 186.381818 131.995399 
L 191.454545 142.849377 
L 196.527273 155.557753 
L 201.6 169.807604 
L 206.672727 185.248051 
L 211.745455 201.4989 
L 216.818182 218.16 
L 221.890909 234.8211 
L 226.963636 251.071949 
L 232.036364 266.512396 
L 237.109091 280.762247 
L 242.181818 293.470623 
L 247.254545 304.324601 
L 252.327273 313.056921 
L 257.4 319.452564 
L 262.472727 323.354047 
L 267.545455 324.665304 
L 272.618182 323.354047 
L 277.690909 319.452564 
L 282.763636 313.056921 
L 287.836364 304.324601 
L 292.909091 293.470623 
L 297.981818 280.762247 
L 303.054545 266.512396 
L 308.127273 251.071949 
L 313.2 234.8211 
L 318.272727 218.16 
L 323.345455 201.4989 
L 328.418182 185.248051 
L 333.490909 169.807604 
L 338.563636 155.557753 
L 343.636364 142.849377 
L 348.709091 131.995399 
L 353.781818 123.263079 
L 358.854545 116.867436 
L 363.927273 112.965953 
L 369 111.654696 
L 374.072727 112.965953 
L 379.145455 116.867436 
L 384.218182 123.263079 
L 389.290909 131.995399 
L 394.363636 142.849377 
L 399.436364 155.557753 
L 404.509091 169.807604 
L 409.581818 185.248051 
L 414.654545 201.4989 
L 419.727273 218.16 
L 424.8 234.8211 
L 429.872727 251.071949 
L 434.945455 266.512396 
L 440.018182 280.762247 
L 445.090909 293.470623 
L 450.163636 304.324601 
L 455.236364 313.056921 
L 460.309091 319.452564 
L 465.381818 323.354047 
L 470.454545 324.665304 
L 475.527273 323.354047 
L 480.6 319.452564 
L 485.672727 313.056921 
L 490.745455 304.324601 
L 495.818182 293.470623 
L 500.890909 280.762247 
L 505.963636 266.512396 
L 511.036364 251.071949 
L 516.109091 234.8211 
L 521.181818 218.16 
L 526.254545 201.4989 
L 531.327273 185.248051 
L 536.4 169.807604 
L 541.472727 155.557753 
L 546.545455 142.849377 
L 551.618182 131.995399 
L 556.690909 123.263079 
L 561.763636 116.867436 
L 566.836364 112.965953 
L 571.909091 111.654696 
L 576.981818 112.965953 
L 582.054545 116.867436 
L 587.127273 123.263079 
L 592.2 131.995399 
L 597.272727 142.849377 
L 602.345455 155.557753 
L 607.418182 169.807604 
L 612.490909 185.248051 
L 617.563636 201.4989 
L 622.636364 218.16 
" clip-path="url(#p4f5ad34fcf)" style="fill: none; stroke: #d62728; stroke-width: 1.5; stroke-linecap: square"/>
   </g>
   <g id="patch_3">
    <path d="M 90 384.48 
L 90 51.84 
" style="fill: none; stroke: #000000; stroke-width: 0.8; stroke-linejoin: miter; stroke-linecap: square"/>
   </g>
   <g id="patch_4">
    <path d="M 648 384.48 
L 648 51.84 
" style="fill: none; stroke: #000000; stroke-width: 0.8; stroke-linejoin: miter; stroke-linecap: square"/>
   </g>
   <g id="patch_5">
    <path d="M 90 384.48 
L 648 384.48 
" style="fill: none; stroke: #000000; stroke-width: 0.8; stroke-linejoin: miter; stroke-linecap: square"/>
   </g>
   <g id="patch_6">
    <path d="M 90 51.84 
L 648 51.84 
" style="fill: none; stroke: #000000; stroke-width: 0.8; stroke-linejoin: miter; stroke-linecap: square"/>
   </g>
   <g id="text_18">
    <!-- Wave Movement on String at Different Time Steps -->
    <g transform="translate(218.14125 45.84) scale(0.12 -0.12)">
     <defs>
      <path id="DejaVuSans-57" d="M 213 4666 
L 850 4666 
L 1831 722 
L 2809 4666 
L 3519 4666 
L 4500 722 
L 5478 4666 
L 6119 4666 
L 4947 0 
L 4153 0 
L 3169 4050 
L 2175 0 
L 1381 0 
L 213 4666 
z
" transform="scale(0.015625)"/>
      <path id="DejaVuSans-76" d="M 191 3500 
L 800 3500 
L 1894 563 
L 2988 3500 
L 3597 3500 
L 2284 0 
L 1503 0 
L 191 3500 
z
" transform="scale(0.015625)"/>
      <path id="DejaVuSans-4d" d="M 628 4666 
L 1569 4666 
L 2759 1491 
L 3956 4666 
L 4897 4666 
L 4897 0 
L 4281 0 
L 4281 4097 
L 3078 897 
L 2444 897 
L 1241 4097 
L 1241 0 
L 628 0 
L 628 4666 
z
" transform="scale(0.015625)"/>
      <path id="DejaVuSans-53" d="M 3425 4513 
L 3425 3897 
Q 3066 4069 2747 4153 
Q 2428 4238 2131 4238 
Q 1616 4238 1336 4038 
Q 1056 3838 1056 3469 
Q 1056 3159 1242 3001 
Q 1428 2844 1947 2747 
L 2328 2669 
Q 3034 2534 3370 2195 
Q 3706 1856 3706 1288 
Q 3706 609 3251 259 
Q 2797 -91 1919 -91 
Q 1588 -91 1214 -16 
Q 841 59 441 206 
L 441 856 
Q 825 641 1194 531 
Q 1563 422 1919 422 
Q 2459 422 2753 634 
Q 3047 847 3047 1241 
Q 3047 1584 2836 1778 
Q 2625 1972 2144 2069 
L 1759 2144 
Q 1053 2284 737 2584 
Q 422 2884 422 3419 
Q 422 4038 858 4394 
Q 1294 4750 2059 4750 
Q 2388 4750 2728 4690 
Q 3069 4631 3425 4513 
z
" transform="scale(0.015625)"/>
      <path id="DejaVuSans-72" d="M 2631 2963 
Q 2534 3019 2420 3045 
Q 2306 3072 2169 3072 
Q 1681 3072 1420 2755 
Q 1159 2438 1159 1844 
L 1159 0 
L 581 0 
L 581 3500 
L 1159 3500 
L 1159 2956 
Q 1341 3275 1631 3429 
Q 1922 3584 2338 3584 
Q 2397 3584 2469 3576 
Q 2541 3569 2628 3553 
L 2631 2963 
z
" transform="scale(0.015625)"/>
      <path id="DejaVuSans-67" d="M 2906 1791 
Q 2906 2416 2648 2759 
Q 2391 3103 1925 3103 
Q 1463 3103 1205 2759 
Q 947 2416 947 1791 
Q 947 1169 1205 825 
Q 1463 481 1925 481 
Q 2391 481 2648 825 
Q 2906 1169 2906 1791 
z
M 3481 434 
Q 3481 -459 3084 -895 
Q 2688 -1331 1869 -1331 
Q 1566 -1331 1297 -1286 
Q 1028 -1241 775 -1147 
L 775 -588 
Q 1028 -725 1275 -790 
Q 1522 -856 1778 -856 
Q 2344 -856 2625 -561 
Q 2906 -266 2906 331 
L 2906 616 
Q 2728 306 2450 153 
Q 2172 0 1784 0 
Q 1141 0 747 490 
Q 353 981 353 1791 
Q 353 2603 747 3093 
Q 1141 3584 1784 3584 
Q 2172 3584 2450 3431 
Q 2728 3278 2906 2969 
L 2906 3500 
L 3481 3500 
L 3481 434 
z
" transform="scale(0.015625)"/>
      <path id="DejaVuSans-66" d="M 2375 4863 
L 2375 4384 
L 1825 4384 
Q 1516 4384 1395 4259 
Q 1275 4134 1275 3809 
L 1275 3500 
L 2222 3500 
L 2222 3053 
L 1275 3053 
L 1275 0 
L 697 0 
L 697 3053 
L 147 3053 
L 147 3500 
L 697 3500 
L 697 3744 
Q 697 4328 969 4595 
Q 1241 4863 1831 4863 
L 2375 4863 
z
" transform="scale(0.015625)"/>
      <path id="DejaVuSans-54" d="M -19 4666 
L 3928 4666 
L 3928 4134 
L 2272 4134 
L 2272 0 
L 1638 0 
L 1638 4134 
L -19 4134 
L -19 4666 
z
" transform="scale(0.015625)"/>
     </defs>
     <use xlink:href="#DejaVuSans-57"/>
     <use xlink:href="#DejaVuSans-61" transform="translate(92.501953 0)"/>
     <use xlink:href="#DejaVuSans-76" transform="translate(153.78125 0)"/>
     <use xlink:href="#DejaVuSans-65" transform="translate(212.960938 0)"/>
     <use xlink:href="#DejaVuSans-20" transform="translate(274.484375 0)"/>
     <use xlink:href="#DejaVuSans-4d" transform="translate(306.271484 0)"/>
     <use xlink:href="#DejaVuSans-6f" transform="translate(392.550781 0)"/>
     <use xlink:href="#DejaVuSans-76" transform="translate(453.732422 0)"/>
     <use xlink:href="#DejaVuSans-65" transform="translate(512.912109 0)"/>
     <use xlink:href="#DejaVuSans-6d" transform="translate(574.435547 0)"/>
     <use xlink:href="#DejaVuSans-65" transform="translate(671.847656 0)"/>
     <use xlink:href="#DejaVuSans-6e" transform="translate(733.371094 0)"/>
     <use xlink:href="#DejaVuSans-74" transform="translate(796.75 0)"/>
     <use xlink:href="#DejaVuSans-20" transform="translate(835.958984 0)"/>
     <use xlink:href="#DejaVuSans-6f" transform="translate(867.746094 0)"/>
     <use xlink:href="#DejaVuSans-6e" transform="translate(928.927734 0)"/>
     <use xlink:href="#DejaVuSans-20" transform="translate(992.306641 0)"/>
     <use xlink:href="#DejaVuSans-53" transform="translate(1024.09375 0)"/>
     <use xlink:href="#DejaVuSans-74" transform="translate(1087.570312 0)"/>
     <use xlink:href="#DejaVuSans-72" transform="translate(1126.779297 0)"/>
     <use xlink:href="#DejaVuSans-69" transform="translate(1167.892578 0)"/>
     <use xlink:href="#DejaVuSans-6e" transform="translate(1195.675781 0)"/>
     <use xlink:href="#DejaVuSans-67" transform="translate(1259.054688 0)"/>
     <use xlink:href="#DejaVuSans-20" transform="translate(1322.53125 0)"/>
     <use xlink:href="#DejaVuSans-61" transform="translate(1354.318359 0)"/>
     <use xlink:href="#DejaVuSans-74" transform="translate(1415.597656 0)"/>
     <use xlink:href="#DejaVuSans-20" transform="translate(1454.806641 0)"/>
     <use xlink:href="#DejaVuSans-44" transform="translate(1486.59375 0)"/>
     <use xlink:href="#DejaVuSans-69" transform="translate(1563.595703 0)"/>
     <use xlink:href="#DejaVuSans-66" transform="translate(1591.378906 0)"/>
     <use xlink:href="#DejaVuSans-66" transform="translate(1626.583984 0)"/>
     <use xlink:href="#DejaVuSans-65" transform="translate(1661.789062 0)"/>
     <use xlink:href="#DejaVuSans-72" transform="translate(1723.3125 0)"/>
     <use xlink:href="#DejaVuSans-65" transform="translate(1762.175781 0)"/>
     <use xlink:href="#DejaVuSans-6e" transform="translate(1823.699219 0)"/>
     <use xlink:href="#DejaVuSans-74" transform="translate(1887.078125 0)"/>
     <use xlink:href="#DejaVuSans-20" transform="translate(1926.287109 0)"/>
     <use xlink:href="#DejaVuSans-54" transform="translate(1958.074219 0)"/>
     <use xlink:href="#DejaVuSans-69" transform="translate(2016.033203 0)"/>
     <use xlink:href="#DejaVuSans-6d" transform="translate(2043.816406 0)"/>
     <use xlink:href="#DejaVuSans-65" transform="translate(2141.228516 0)"/>
     <use xlink:href="#DejaVuSans-20" transform="translate(2202.751953 0)"/>
     <use xlink:href="#DejaVuSans-53" transform="translate(2234.539062 0)"/>
     <use xlink:href="#DejaVuSans-74" transform="translate(2298.015625 0)"/>
     <use xlink:href="#DejaVuSans-65" transform="translate(2337.224609 0)"/>
     <use xlink:href="#DejaVuSans-70" transform="translate(2398.748047 0)"/>
     <use xlink:href="#DejaVuSans-73" transform="translate(2462.224609 0)"/>
    </g>
   </g>
   <g id="legend_1">
    <g id="patch_7">
     <path d="M 97 379.48 
L 202.040625 379.48 
Q 204.040625 379.48 204.040625 377.48 
L 204.040625 319.7675 
Q 204.040625 317.7675 202.040625 317.7675 
L 97 317.7675 
Q 95 317.7675 95 319.7675 
L 95 377.48 
Q 95 379.48 97 379.48 
z
" style="fill: #ffffff; opacity: 0.8; stroke: #cccccc; stroke-linejoin: miter"/>
    </g>
    <g id="line2d_35">
     <path d="M 99 325.865937 
L 109 325.865937 
L 119 325.865937 
" style="fill: none; stroke: #1f77b4; stroke-width: 1.5; stroke-linecap: square"/>
    </g>
    <g id="text_19">
     <!-- Time = 0.000s -->
     <g transform="translate(127 329.365937) scale(0.1 -0.1)">
      <defs>
       <path id="DejaVuSans-3d" d="M 678 2906 
L 4684 2906 
L 4684 2381 
L 678 2381 
L 678 2906 
z
M 678 1631 
L 4684 1631 
L 4684 1100 
L 678 1100 
L 678 1631 
z
" transform="scale(0.015625)"/>
      </defs>
      <use xlink:href="#DejaVuSans-54"/>
      <use xlink:href="#DejaVuSans-69" transform="translate(57.958984 0)"/>
      <use xlink:href="#DejaVuSans-6d" transform="translate(85.742188 0)"/>
      <use xlink:href="#DejaVuSans-65" transform="translate(183.154297 0)"/>
      <use xlink:href="#DejaVuSans-20" transform="translate(244.677734 0)"/>
      <use xlink:href="#DejaVuSans-3d" transform="translate(276.464844 0)"/>
      <use xlink:href="#DejaVuSans-20" transform="translate(360.253906 0)"/>
      <use xlink:href="#DejaVuSans-30" transform="translate(392.041016 0)"/>
      <use xlink:href="#DejaVuSans-2e" transform="translate(455.664062 0)"/>
      <use xlink:href="#DejaVuSans-30" transform="translate(487.451172 0)"/>
      <use xlink:href="#DejaVuSans-30" transform="translate(551.074219 0)"/>
      <use xlink:href="#DejaVuSans-30" transform="translate(614.697266 0)"/>
      <use xlink:href="#DejaVuSans-73" transform="translate(678.320312 0)"/>
     </g>
    </g>
    <g id="line2d_36">
     <path d="M 99 340.544062 
L 109 340.544062 
L 119 340.544062 
" style="fill: none; stroke: #ff7f0e; stroke-width: 1.5; stroke-linecap: square"/>
    </g>
    <g id="text_20">
     <!-- Time = 0.120s -->
     <g transform="translate(127 344.044062) scale(0.1 -0.1)">
      <use xlink:href="#DejaVuSans-54"/>
      <use xlink:href="#DejaVuSans-69" transform="translate(57.958984 0)"/>
      <use xlink:href="#DejaVuSans-6d" transform="translate(85.742188 0)"/>
      <use xlink:href="#DejaVuSans-65" transform="translate(183.154297 0)"/>
      <use xlink:href="#DejaVuSans-20" transform="translate(244.677734 0)"/>
      <use xlink:href="#DejaVuSans-3d" transform="translate(276.464844 0)"/>
      <use xlink:href="#DejaVuSans-20" transform="translate(360.253906 0)"/>
      <use xlink:href="#DejaVuSans-30" transform="translate(392.041016 0)"/>
      <use xlink:href="#DejaVuSans-2e" transform="translate(455.664062 0)"/>
      <use xlink:href="#DejaVuSans-31" transform="translate(487.451172 0)"/>
      <use xlink:href="#DejaVuSans-32" transform="translate(551.074219 0)"/>
      <use xlink:href="#DejaVuSans-30" transform="translate(614.697266 0)"/>
      <use xlink:href="#DejaVuSans-73" transform="translate(678.320312 0)"/>
     </g>
    </g>
    <g id="line2d_37">
     <path d="M 99 355.222188 
L 109 355.222188 
L 119 355.222188 
" style="fill: none; stroke: #2ca02c; stroke-width: 1.5; stroke-linecap: square"/>
    </g>
    <g id="text_21">
     <!-- Time = 0.200s -->
     <g transform="translate(127 358.722188) scale(0.1 -0.1)">
      <use xlink:href="#DejaVuSans-54"/>
      <use xlink:href="#DejaVuSans-69" transform="translate(57.958984 0)"/>
      <use xlink:href="#DejaVuSans-6d" transform="translate(85.742188 0)"/>
      <use xlink:href="#DejaVuSans-65" transform="translate(183.154297 0)"/>
      <use xlink:href="#DejaVuSans-20" transform="translate(244.677734 0)"/>
      <use xlink:href="#DejaVuSans-3d" transform="translate(276.464844 0)"/>
      <use xlink:href="#DejaVuSans-20" transform="translate(360.253906 0)"/>
      <use xlink:href="#DejaVuSans-30" transform="translate(392.041016 0)"/>
      <use xlink:href="#DejaVuSans-2e" transform="translate(455.664062 0)"/>
      <use xlink:href="#DejaVuSans-32" transform="translate(487.451172 0)"/>
      <use xlink:href="#DejaVuSans-30" transform="translate(551.074219 0)"/>
      <use xlink:href="#DejaVuSans-30" transform="translate(614.697266 0)"/>
      <use xlink:href="#DejaVuSans-73" transform="translate(678.320312 0)"/>
     </g>
    </g>
    <g id="line2d_38">
     <path d="M 99 369.900312 
L 109 369.900312 
L 119 369.900312 
" style="fill: none; stroke: #d62728; stroke-width: 1.5; stroke-linecap: square"/>
    </g>
    <g id="text_22">
     <!-- Time = 0.350s -->
     <g transform="translate(127 373.400312) scale(0.1 -0.1)">
      <defs>
       <path id="DejaVuSans-33" d="M 2597 2516 
Q 3050 2419 3304 2112 
Q 3559 1806 3559 1356 
Q 3559 666 3084 287 
Q 2609 -91 1734 -91 
Q 1441 -91 1130 -33 
Q 819 25 488 141 
L 488 750 
Q 750 597 1062 519 
Q 1375 441 1716 441 
Q 2309 441 2620 675 
Q 2931 909 2931 1356 
Q 2931 1769 2642 2001 
Q 2353 2234 1838 2234 
L 1294 2234 
L 1294 2753 
L 1863 2753 
Q 2328 2753 2575 2939 
Q 2822 3125 2822 3475 
Q 2822 3834 2567 4026 
Q 2313 4219 1838 4219 
Q 1578 4219 1281 4162 
Q 984 4106 628 3988 
L 628 4550 
Q 988 4650 1302 4700 
Q 1616 4750 1894 4750 
Q 2613 4750 3031 4423 
Q 3450 4097 3450 3541 
Q 3450 3153 3228 2886 
Q 3006 2619 2597 2516 
z
" transform="scale(0.015625)"/>
      </defs>
      <use xlink:href="#DejaVuSans-54"/>
      <use xlink:href="#DejaVuSans-69" transform="translate(57.958984 0)"/>
      <use xlink:href="#DejaVuSans-6d" transform="translate(85.742188 0)"/>
      <use xlink:href="#DejaVuSans-65" transform="translate(183.154297 0)"/>
      <use xlink:href="#DejaVuSans-20" transform="translate(244.677734 0)"/>
      <use xlink:href="#DejaVuSans-3d" transform="translate(276.464844 0)"/>
      <use xlink:href="#DejaVuSans-20" transform="translate(360.253906 0)"/>
      <use xlink:href="#DejaVuSans-30" transform="translate(392.041016 0)"/>
      <use xlink:href="#DejaVuSans-2e" transform="translate(455.664062 0)"/>
      <use xlink:href="#DejaVuSans-33" transform="translate(487.451172 0)"/>
      <use xlink:href="#DejaVuSans-35" transform="translate(551.074219 0)"/>
      <use xlink:href="#DejaVuSans-30" transform="translate(614.697266 0)"/>
      <use xlink:href="#DejaVuSans-73" transform="translate(678.320312 0)"/>
     </g>
    </g>
   </g>
  </g>
 </g>
 <defs>
  <clipPath id="p4f5ad34fcf">
   <rect x="90" y="51.84" width="558" height="332.64"/>
  </clipPath>
 </defs>
</svg>
